# xmcd CD database file
#
# Track frame offsets:
#	150
#	32006
#	52933
#	74802
#	111445
#	134224
#	170142
#	215822
#	232397
#	244705
#
# Disc length: 3613 seconds
#
# Revision: 1
# Processed by: cddbd v1.5.2PL0 Copyright (c) Steve Scherf et al.
# Submitted via: CDex 1.51
#
DISCID=a90e1b0a
DTITLE=Miller Anderson - Bluesheart
DYEAR=2007
DGENRE=Blues
TTITLE0=High Tide And High Water
TTITLE1=Fallin Back Into The Blue
TTITLE2=Little Man Dancing
TTITLE3=Help Me
TTITLE4=House Of The Rising Sun
TTITLE5=Running Blues
TTITLE6=Smokestack Lightnin' and Wang Dang Doodle
TTITLE7=Sending Me Angels
TTITLE8=Houston (Scotland)
TTITLE9=Vigilante Man and Crossroads
EXTD=YEAR: 2007
EXTT0=
EXTT1=
EXTT2=
EXTT3=
EXTT4=
EXTT5=
EXTT6=
EXTT7=
EXTT8=
EXTT9=
PLAYORDER=
